<svg width="1129" height="284" viewBox="0 0 1129 284" fill="none" xmlns="http://www.w3.org/2000/svg">
<g clip-path="url(#clip0_1260_4)">
<path d="M402.028 210.797H394.632V186.73L380.724 210.797H372.784V176.275H380.182V200.292L394.138 176.275H402.028V210.797Z" fill="white"/>
<path d="M441.284 210.797H433.887V196.396H419.585V210.797H412.188V176.275H419.585V189.788H433.887V176.275H441.284V210.797Z" fill="white"/>
<path d="M473.29 211.389H465.894V207.888C457.065 207.74 449.865 202.907 449.865 193.438C449.865 184.265 457.361 179.136 465.894 178.988V175.438H473.29V178.988C482.217 179.136 489.318 184.019 489.318 193.438C489.318 202.857 481.428 207.74 473.29 207.888V211.389ZM457.756 193.438C457.756 199.208 461.849 201.674 466.091 201.822V185.054C461.751 185.202 457.756 187.619 457.756 193.438ZM473.093 201.822C477.038 201.674 481.428 198.961 481.428 193.438C481.428 187.372 477.532 185.202 473.093 185.054V201.822Z" fill="white"/>
<path d="M505.346 210.797H497.948V176.275H509.833C518.513 176.275 523.987 179.875 523.987 187.815C523.987 195.607 518.365 199.997 509.144 199.997H505.346L505.346 210.797ZM505.198 193.487H509.241C513.681 193.487 516.343 191.761 516.343 188.111C516.343 184.265 513.828 182.785 509.291 182.785H505.198V193.487Z" fill="white"/>
<path d="M550.075 203.203H536.81L534.343 210.798H527.044L538.831 176.276H548.448L560.087 210.798H552.541L550.075 203.203ZM538.831 196.743H548.054L543.467 182.244L538.831 196.743Z" fill="white"/>
<path d="M592.34 209.416C590.564 210.353 588.05 211.389 583.019 211.389C572.466 211.389 565.512 205.323 565.512 193.98C565.512 182.095 572.466 175.684 583.759 175.684C587.507 175.684 590.614 176.473 592.438 177.311L590.812 183.525C588.739 182.834 586.372 182.489 584.794 182.489C577.989 182.489 573.353 185.892 573.353 193.536C573.353 200.835 577.792 204.534 584.745 204.534C586.323 204.534 588.739 204.09 590.86 203.202L592.34 209.416Z" fill="white"/>
<path d="M616.06 210.797H608.663V183.081H598.849V176.275H625.825V183.081H616.06V210.797Z" fill="white"/>
<path d="M640.817 210.797H633.42V176.275H645.306C653.985 176.275 659.459 179.875 659.459 187.815C659.459 195.607 653.837 199.997 644.614 199.997H640.817V210.797ZM640.669 193.487H644.714C649.151 193.487 651.815 191.761 651.815 188.111C651.815 184.265 649.3 182.785 644.763 182.785H640.669V193.487Z" fill="white"/>
<path d="M673.612 206.112C675.388 205.027 676.866 203.745 677.705 202.216L677.853 201.871L665.03 176.275H673.612L681.749 194.621L688.357 176.275H696.001L685.102 203.153C683.476 207.147 680.664 210.254 677.755 211.833L673.612 206.112Z" fill="white"/>
<path d="M710.304 190.725H712.079L722.683 176.275H731.263L719.082 191.366C723.077 192.599 724.803 198.813 731.806 210.797H723.323C716.271 198.616 717.208 196.544 712.967 196.544H710.304V210.797H702.906V176.275H710.304V190.725Z" fill="white"/>
<path d="M753.356 210.797H745.958V183.081H736.145V176.275H763.12V183.081H753.356V210.797Z" fill="white"/>
<path d="M778.064 206.112C779.839 205.027 781.317 203.745 782.156 202.216L782.304 201.871L769.481 176.275H778.063L786.2 194.621L792.809 176.275H800.452L789.554 203.153C787.927 207.147 785.115 210.254 782.206 211.833L778.064 206.112Z" fill="white"/>
<path d="M814.755 210.797H807.357V176.275H819.243C827.923 176.275 833.396 179.875 833.396 187.815C833.396 195.607 827.774 199.997 818.552 199.997H814.755V210.797ZM814.606 193.487H818.651C823.089 193.487 825.753 191.761 825.753 188.111C825.753 184.265 823.237 182.785 818.7 182.785H814.606V193.487Z" fill="white"/>
<path d="M870.777 210.797H863.38V196.396H849.078V210.797H841.681V176.275H849.078V189.788H863.38V176.275H870.777V210.797Z" fill="white"/>
<path d="M880.937 210.797V176.275H888.334V187.569H892.132C900.959 187.569 905.989 191.021 905.989 198.912C905.989 206.457 900.663 210.797 891.589 210.797H880.937ZM888.334 204.287H891.096C896.274 204.287 898.345 202.167 898.345 198.961C898.345 195.509 896.077 194.079 891.096 194.079H888.334V204.287ZM917.233 210.797H909.836V176.275H917.233V210.797Z" fill="white"/>
<path d="M949.536 210.797H927.393V176.275H949.536V182.785H934.79V190.133H947.761V196.199H934.79V204.287H949.536V210.797Z" fill="white"/>
<path d="M331.762 17.0078H324.488V266.457H331.762V17.0078Z" fill="white"/>
<path d="M395.52 141.755H372.784V35.6572H409.311C415.981 35.6572 421.992 36.366 427.349 37.7794C432.705 39.1953 437.276 41.3413 441.065 44.2219C444.854 47.1004 447.758 50.7907 449.78 55.2867C451.801 59.7828 452.813 65.0629 452.813 71.1248C452.813 77.0881 451.776 82.3916 449.705 87.0403C447.634 91.6887 444.629 95.6029 440.687 98.7862C436.745 101.968 431.946 104.393 426.288 106.062C420.628 107.729 414.263 108.562 407.191 108.562H395.52V141.755ZM395.065 88.5547H407.494C414.364 88.5547 419.719 87.2164 423.56 84.5376C427.398 81.8633 429.319 77.6939 429.319 72.0337C429.319 66.0726 427.448 61.8557 423.71 59.3789C419.972 56.9043 414.617 55.665 407.644 55.665H395.065V88.5547Z" fill="white"/>
<path d="M521.623 143.575C513.943 143.575 506.944 142.385 500.631 140.013C494.316 137.639 488.885 134.127 484.337 129.479C479.79 124.832 476.278 119.097 473.803 112.274C471.326 105.454 470.091 97.5983 470.091 88.7071C470.091 79.816 471.378 71.9586 473.955 65.1382C476.531 58.3179 480.093 52.5846 484.64 47.9357C489.188 43.2875 494.569 39.7751 500.784 37.4015C506.996 35.0276 513.741 33.8398 521.017 33.8398C529.201 33.8398 536.501 35.103 542.919 37.6291C549.334 40.1556 554.741 43.7666 559.136 48.4641C563.533 53.1645 566.89 58.9236 569.217 65.744C571.539 72.5642 572.701 80.2179 572.701 88.7071C572.701 98.1028 571.415 106.264 568.837 113.185C566.261 120.106 562.672 125.816 558.077 130.312C553.477 134.808 548.073 138.144 541.858 140.316C535.644 142.488 528.898 143.575 521.623 143.575ZM522.381 123.567C526.22 123.567 529.755 122.86 532.991 121.445C536.223 120.031 539.001 117.883 541.328 115.002C543.649 112.124 545.443 108.513 546.708 104.167C547.97 99.8239 548.603 94.6705 548.603 88.7071C548.603 76.6821 546.075 67.8663 541.025 62.2575C535.97 56.651 529.302 53.8455 521.017 53.8455C517.277 53.8455 513.765 54.5542 510.483 55.9677C507.198 57.3834 504.345 59.5294 501.92 62.4101C499.495 65.2887 497.6 68.9272 496.236 73.3222C494.872 77.7172 494.189 82.8472 494.189 88.7071C494.189 94.6705 494.921 99.8239 496.386 104.167C497.851 108.513 499.847 112.124 502.373 115.002C504.899 117.883 507.881 120.031 511.316 121.445C514.751 122.86 518.441 123.567 522.381 123.567Z" fill="white"/>
<path d="M674.555 137.553C673.137 138.258 671.599 138.96 669.932 139.661C668.266 140.365 666.294 141.016 664.021 141.618C661.748 142.219 659.119 142.696 656.142 143.048C653.16 143.396 649.748 143.575 645.908 143.575C637.822 143.575 630.471 142.41 623.855 140.088C617.239 137.764 611.58 134.355 606.88 129.857C602.18 125.363 598.546 119.778 595.968 113.11C593.39 106.44 592.101 98.7625 592.101 90.0715C592.101 80.9764 593.39 72.9205 595.968 65.8962C598.546 58.8739 602.257 52.9884 607.108 48.2389C611.958 43.4895 617.844 39.9017 624.766 37.4769C631.687 35.0515 639.493 33.8398 648.185 33.8398C653.942 33.8398 659.119 34.347 663.72 35.3544C668.317 36.366 672.029 37.5283 674.86 38.8405L669.855 57.9378C666.62 56.8269 663.338 56.0192 660.004 55.5124C656.67 55.0095 653.792 54.756 651.364 54.756C646.11 54.756 641.336 55.4135 637.044 56.7301C632.748 58.0473 629.058 60.0987 625.977 62.8825C622.892 65.6689 620.495 69.2129 618.777 73.5158C617.058 77.8229 616.203 82.9095 616.203 88.7825C616.203 100.024 619.357 108.481 625.677 114.152C631.988 119.823 640.503 122.658 651.214 122.658C653.641 122.658 656.567 122.332 660.004 121.672C663.441 121.017 666.774 119.982 670.01 118.566L674.555 137.553Z" fill="white"/>
<path d="M760.945 118.566H720.173L712.595 141.755H690.164L726.39 35.6572H755.944L791.715 141.755H768.524L760.945 118.566ZM726.39 98.5588H754.733L740.637 53.9977L726.39 98.5588Z" fill="white"/>
<path d="M843.404 141.755H820.668V56.5735H790.504V35.6572H873.414V56.5735H843.404V141.755Z" fill="white"/>
<path d="M935.555 143.575C927.878 143.575 920.879 142.385 914.563 140.013C908.248 137.639 902.817 134.127 898.272 129.479C893.722 124.832 890.212 119.097 887.737 112.274C885.258 105.454 884.021 97.5983 884.021 88.7071C884.021 79.816 885.31 71.9586 887.888 65.1382C890.465 58.3179 894.027 52.5846 898.572 47.9357C903.118 43.2875 908.501 39.7751 914.714 37.4015C920.931 35.0276 927.676 33.8398 934.949 33.8398C943.133 33.8398 950.433 35.103 956.852 37.6291C963.266 40.1556 968.675 43.7666 973.07 48.4641C977.465 53.1645 980.821 58.9236 983.149 65.744C985.474 72.5642 986.633 80.2179 986.633 88.7071C986.633 98.1028 985.345 106.264 982.771 113.185C980.194 120.106 976.606 125.816 972.009 130.312C967.408 134.808 962.003 138.144 955.791 140.316C949.574 142.488 942.833 143.575 935.555 143.575ZM936.315 123.567C940.152 123.567 943.688 122.86 946.923 121.445C950.158 120.031 952.934 117.883 955.258 115.002C957.582 112.124 959.373 108.513 960.641 104.167C961.904 99.8239 962.536 94.6705 962.536 88.7071C962.536 76.6821 960.009 67.8663 954.957 62.2575C949.904 56.651 943.232 53.8455 934.949 53.8455C931.211 53.8455 927.697 54.5542 924.414 55.9677C921.132 57.3834 918.275 59.5294 915.852 62.4101C913.425 65.2887 911.53 68.9272 910.168 73.3222C908.802 77.7172 908.123 82.8472 908.123 88.7071C908.123 94.6705 908.853 99.8239 910.318 104.167C911.784 108.513 913.781 112.124 916.307 115.002C918.829 117.883 921.811 120.031 925.248 121.445C928.681 122.86 932.371 123.567 936.315 123.567Z" fill="white"/>
<path d="M1128.51 141.755H1105.62L1099.86 71.2752L1078.03 141.755H1056.36L1034.83 71.5803L1029.08 141.755H1006.19L1016.8 35.6572H1043.93L1067.88 115.686L1091.52 35.6572H1117.74L1128.51 141.755Z" fill="white"/>
<path d="M171.505 141.757C171.482 158.209 158.145 171.521 141.712 171.505C125.275 171.491 111.954 158.147 111.96 141.708C111.978 125.257 125.333 111.944 141.764 111.959C158.198 111.976 171.512 125.318 171.505 141.757Z" fill="white"/>
<path d="M142.011 0C120.527 0 100.159 4.7655 81.9072 13.2941C106.187 10.7899 131.403 21.2476 150.024 40.0416C150.03 40.0391 150.036 40.0362 150.042 40.0337C159.352 49.2282 167.515 61.1508 174.449 75.4997C213.947 82.5711 240.771 62.9528 251.342 51.3435C251.344 51.3407 251.346 51.3382 251.348 51.3353C225.313 19.9756 185.998 0 142.011 0Z" fill="white"/>
<path d="M56.5175 28.5779C37.0536 43.2605 21.4982 62.8334 11.6855 85.4661C23.4822 88.3687 58.8023 99.8433 75.0069 143.517C79.881 141.932 90.3874 135.82 97.677 112.221C106.621 83.3116 122.907 55.4126 144.033 43.0615C120.748 20.4972 85.3984 10.6275 56.5175 28.5779Z" fill="white"/>
<path d="M264.946 212.61C275.688 194.036 281.738 174.044 283.465 154C273.497 176.243 251.817 192.815 226.203 199.517C226.202 199.524 226.202 199.531 226.201 199.537C213.57 202.989 199.146 204.085 183.231 202.905C157.347 233.518 160.954 266.518 165.74 281.462C165.741 281.465 165.742 281.468 165.744 281.472C205.966 274.642 242.952 250.64 264.946 212.61Z" fill="white"/>
<path d="M282.901 124.407C279.896 100.238 270.694 77.0032 255.967 57.2031C247.551 65.9508 219.937 90.75 173.947 82.9227C172.886 87.9293 172.935 100.069 189.762 118.171C210.368 140.358 226.428 168.387 226.579 192.827C257.796 183.979 284.032 158.352 282.901 124.407Z" fill="white"/>
<path d="M19.0401 212.591C29.7819 231.164 44.1001 246.391 60.6246 257.906C46.3124 238.167 42.7763 211.138 49.7695 185.642C49.7641 185.638 49.7588 185.634 49.7534 185.63C53.0745 172.983 59.3363 159.965 68.3166 146.795C54.7023 109.112 24.2711 95.7295 8.91482 92.3952C8.91132 92.3946 8.90792 92.3939 8.90442 92.3936C-5.28218 130.583 -2.95378 174.56 19.0401 212.591Z" fill="white"/>
<path d="M86.578 272.216C109.047 281.702 133.804 285.364 158.344 282.531C154.964 270.881 147.257 234.607 177.042 198.761C173.23 195.339 162.674 189.312 138.558 194.809C109.007 201.531 76.662 201.401 55.3849 189.312C47.4527 220.725 56.5656 256.221 86.578 272.216Z" fill="white"/>
<path d="M380.182 266.457H372.784V231.936H384.669C393.349 231.936 398.823 235.535 398.823 243.476C398.823 251.268 393.201 255.656 383.979 255.656H380.182V266.457ZM380.034 249.146H384.077C388.517 249.146 391.179 247.421 391.179 243.771C391.179 239.925 388.664 238.445 384.127 238.445H380.034V249.146Z" fill="white"/>
<path d="M429.251 266.457H407.108V231.936H429.251V238.445H414.506V245.793H427.476V251.859H414.506V259.947H429.251V266.457Z" fill="white"/>
<path d="M478.617 266.457H438.375V231.936H445.772V259.799H454.798V231.936H462.194V259.799H471.22V231.936H478.617V266.457Z" fill="white"/>
<path d="M510.919 266.457H488.775V231.936H510.919V238.445H496.173V245.793H509.144V251.859H496.173V259.947H510.919V266.457Z" fill="white"/>
<path d="M549.139 266.457H541.741V252.057H527.439V266.457H520.042V231.936H527.439V245.448H541.741V231.936H549.139V266.457Z" fill="white"/>
<path d="M588.542 266.457H581.146V242.391L567.237 266.457H559.298V231.936H566.695V255.952L580.651 231.936H588.542V266.457Z" fill="white"/>
<path d="M598.011 243.278C598.011 235.437 603.041 231.936 611.721 231.936H623.754V266.457H616.356V254.522H613.249C608.712 254.522 609.206 256.544 604.718 266.457H596.334C600.329 257.186 601.118 253.881 603.83 252.55C600.378 251.119 598.011 248.309 598.011 243.278ZM616.455 248.407V238.445H611.474C607.923 238.445 605.655 240.072 605.655 243.574C605.655 246.977 608.269 248.407 612.165 248.407L616.455 248.407Z" fill="white"/>
</g>
<defs>
<clipPath id="clip0_1260_4">
<rect width="1128.51" height="283.465" fill="white"/>
</clipPath>
</defs>
</svg>
