<svg width="283" height="283" viewBox="0 0 283 283" fill="none" xmlns="http://www.w3.org/2000/svg">
<g clip-path="url(#clip0_1260_50)">
<path d="M171.505 141.757C171.482 158.209 158.145 171.521 141.712 171.505C125.275 171.491 111.954 158.147 111.96 141.708C111.978 125.257 125.333 111.944 141.764 111.959C158.198 111.976 171.512 125.318 171.505 141.757Z" fill="white"/>
<path d="M142.011 0C120.527 0 100.159 4.7655 81.9072 13.2941C106.187 10.7899 131.403 21.2476 150.024 40.0416C150.03 40.0391 150.036 40.0362 150.042 40.0337C159.352 49.2282 167.515 61.1508 174.449 75.4997C213.947 82.5711 240.771 62.9528 251.342 51.3435C251.344 51.3407 251.346 51.3382 251.348 51.3353C225.313 19.9756 185.998 0 142.011 0Z" fill="white"/>
<path d="M56.5175 28.5779C37.0536 43.2605 21.4982 62.8334 11.6855 85.4661C23.4822 88.3687 58.8023 99.8433 75.0069 143.517C79.881 141.932 90.3874 135.82 97.677 112.221C106.621 83.3116 122.907 55.4126 144.033 43.0615C120.748 20.4972 85.3984 10.6275 56.5175 28.5779Z" fill="white"/>
<path d="M264.946 212.61C275.688 194.036 281.738 174.044 283.465 154C273.497 176.243 251.817 192.815 226.203 199.517C226.202 199.524 226.202 199.531 226.201 199.537C213.57 202.989 199.146 204.085 183.231 202.905C157.347 233.518 160.954 266.518 165.74 281.462C165.741 281.465 165.742 281.468 165.744 281.472C205.966 274.642 242.952 250.64 264.946 212.61Z" fill="white"/>
<path d="M282.901 124.407C279.896 100.238 270.694 77.0032 255.967 57.2031C247.551 65.9508 219.937 90.75 173.947 82.9227C172.886 87.9293 172.935 100.069 189.762 118.171C210.368 140.358 226.428 168.387 226.579 192.827C257.796 183.979 284.032 158.352 282.901 124.407Z" fill="white"/>
<path d="M19.0401 212.591C29.7819 231.164 44.1001 246.391 60.6246 257.906C46.3124 238.167 42.7763 211.138 49.7695 185.642C49.7641 185.638 49.7588 185.634 49.7534 185.63C53.0745 172.983 59.3363 159.965 68.3166 146.795C54.7023 109.112 24.2711 95.7295 8.91482 92.3952C8.91132 92.3946 8.90792 92.3939 8.90442 92.3936C-5.28218 130.583 -2.95378 174.56 19.0401 212.591Z" fill="white"/>
<path d="M86.578 272.216C109.047 281.702 133.804 285.364 158.344 282.531C154.964 270.881 147.257 234.607 177.042 198.761C173.23 195.339 162.674 189.312 138.558 194.809C109.007 201.531 76.662 201.401 55.3849 189.312C47.4527 220.725 56.5656 256.221 86.578 272.216Z" fill="white"/>
</g>
<defs>
<clipPath id="clip0_1260_50">
<rect width="283" height="283" fill="white"/>
</clipPath>
</defs>
</svg>
